<?xml version="1.0" standalone="no"?>
<!DOCTYPE svg PUBLIC "-//W3C//DTD SVG 20010904//EN"
 "http://www.w3.org/TR/2001/REC-SVG-20010904/DTD/svg10.dtd">
<svg version="1.0" xmlns="http://www.w3.org/2000/svg"
 width="400.000000pt" height="400.000000pt" viewBox="0 0 400.000000 400.000000"
 preserveAspectRatio="xMidYMid meet">
<metadata>
Created by potrace 1.11, written by Peter Selinger 2001-2013
</metadata>
<g transform="translate(0.000000,400.000000) scale(0.100000,-0.100000)"
fill="#000000" stroke="none">
<path d="M0 2000 l0 -2000 2000 0 2000 0 0 2000 0 2000 -2000 0 -2000 0 0
-2000z m1450 1606 c0 -2 -55 -31 -122 -65 -153 -75 -201 -102 -247 -139 -20
-15 -67 -52 -106 -81 -38 -29 -114 -99 -169 -155 -101 -104 -122 -114 -32 -16
184 200 367 329 621 438 56 24 55 24 55 18z m296 -499 c5 0 27 -8 49 -17 22
-10 48 -20 58 -23 9 -4 17 -12 17 -19 0 -7 11 -25 25 -40 14 -15 25 -33 25
-40 0 -7 9 -19 20 -26 12 -7 18 -17 15 -22 -3 -6 -1 -10 4 -10 13 0 64 -99 81
-155 12 -43 28 -143 37 -240 3 -33 10 -65 15 -72 5 -7 12 -27 15 -45 3 -18 9
-34 14 -36 5 -2 9 -14 9 -26 0 -25 72 -86 102 -86 11 0 17 -4 14 -8 -2 -4 -1
-14 5 -22 7 -13 9 -12 9 3 0 9 5 17 11 17 5 0 7 -4 4 -10 -3 -5 -1 -10 4 -10
6 0 11 -4 11 -10 0 -5 -9 -10 -21 -10 -11 0 -138 -23 -280 -52 -143 -28 -261
-49 -264 -46 -2 2 -8 137 -11 299 -7 304 3 741 16 719 4 -6 11 -12 16 -13z
m-168 -239 c7 -7 12 -9 12 -5 0 9 76 -29 84 -41 3 -4 6 -165 7 -357 2 -333 1
-349 -17 -356 -11 -4 -100 -26 -199 -49 -185 -42 -274 -67 -288 -80 -7 -6 118
-91 296 -198 31 -19 57 -38 57 -42 0 -21 -88 -91 -151 -120 -141 -63 -291 22
-399 228 -36 69 -42 71 -116 46 -25 -8 -48 -13 -51 -11 -2 3 5 8 18 12 17 6
19 9 8 17 -10 7 -7 8 11 4 14 -3 32 0 40 5 12 9 11 10 -4 5 -16 -5 -17 -4 -6
9 7 8 16 12 21 9 14 -8 11 11 -17 113 -14 52 -24 97 -21 99 2 3 51 -23 108
-57 120 -71 146 -82 154 -68 4 5 3 9 -2 8 -17 -3 -33 1 -33 9 0 10 30 9 47 -1
14 -9 27 8 18 23 -3 5 0 7 8 4 8 -3 18 0 22 5 3 6 11 9 16 6 5 -4 9 1 9 9 0
14 12 20 25 14 2 -2 12 7 20 20 9 12 20 20 25 17 5 -3 11 -1 15 4 3 6 11 9 18
7 7 -1 9 -1 5 1 -12 7 -9 23 4 23 21 0 77 71 84 106 3 19 12 34 20 34 8 0 14
7 14 16 0 11 -5 14 -16 10 -24 -9 -35 3 -24 25 8 14 6 25 -6 44 -9 14 -13 32
-10 41 4 10 -1 25 -10 35 -11 12 -14 27 -10 44 4 15 2 25 -5 25 -6 0 -9 6 -6
13 2 6 -2 20 -10 29 -9 10 -12 22 -7 30 5 7 7 20 6 28 -4 27 22 86 55 124 18
20 35 36 39 36 4 0 12 7 19 16 6 10 27 19 46 21 18 2 38 8 43 13 13 13 19 13
34 -2z m1762 -539 c0 -5 4 -7 10 -4 6 3 7 -1 3 -10 -5 -13 -7 -14 -14 -3 -7
11 -11 10 -19 -2 -11 -17 -13 -10 -4 14 7 18 24 22 24 5z m-432 -36 c-10 -2
-28 -2 -40 0 -13 2 -5 4 17 4 22 1 32 -1 23 -4z m79 1 c-3 -3 -12 -4 -19 -1
-8 3 -5 6 6 6 11 1 17 -2 13 -5z m-169 -11 c-10 -2 -28 -2 -40 0 -13 2 -5 4
17 4 22 1 32 -1 23 -4z m-120 -10 c-10 -2 -28 -2 -40 0 -13 2 -5 4 17 4 22 1
32 -1 23 -4z m-305 -19 c15 -1 30 2 33 7 3 5 49 8 102 7 53 0 81 -3 62 -4 -19
-2 -64 -8 -100 -13 -164 -25 -150 -25 -150 -1 0 14 4 19 13 13 6 -4 24 -8 40
-9z m-1106 -86 c-3 -8 -6 -5 -6 6 -1 11 2 17 5 13 3 -3 4 -12 1 -19z m1869
-23 c-3 -9 -13 -41 -22 -73 -57 -197 -185 -392 -295 -448 -61 -30 -145 -32
-207 -4 -42 19 -152 107 -152 121 0 4 9 11 21 14 11 4 60 33 107 64 112 74
270 174 397 250 55 33 109 66 120 75 26 20 39 20 31 1z m-2349 -241 c-3 -3
-12 -4 -19 -1 -8 3 -5 6 6 6 11 1 17 -2 13 -5z m-17 -27 c11 -5 9 -6 -4 -4
-11 1 -21 9 -23 17 -3 10 -2 11 4 4 4 -6 15 -14 23 -17z m-87 -57 c-3 -3 -8 0
-10 7 -2 7 -11 9 -20 6 -9 -4 -14 -2 -11 3 3 5 8 18 13 29 7 18 8 17 20 -10 7
-16 11 -32 8 -35z m-43 33 c-1 -18 -17 -32 -45 -37 l-30 -6 30 14 c17 9 26 15
22 16 -11 0 2 20 14 20 5 0 9 -3 9 -7z m-15 -53 c-3 -5 -12 -10 -18 -10 -7 0
-6 4 3 10 19 12 23 12 15 0z m2605 -147 c-11 -17 -11 -17 -6 0 3 10 7 26 7 35
1 15 2 15 6 0 2 -10 -1 -25 -7 -35z m-45 -125 c-71 -161 -175 -313 -295 -427
-45 -44 -203 -157 -260 -187 -85 -45 -82 -41 18 25 250 164 406 342 527 604
50 109 59 97 10 -15z"/>
</g>
</svg>
